<svg width="60" height="62" viewBox="0 0 60 62" fill="none" xmlns="http://www.w3.org/2000/svg">
<rect width="60" height="62" fill="#C24D2C"/>
<path d="M29.4752 13.0011C18.7164 13.0011 10 21.038 10 30.9431C10 38.8746 15.5796 45.5972 23.3125 47.9689C24.2899 48.1382 24.6429 47.5831 24.6429 47.1032C24.6429 46.6771 24.632 45.5501 24.6247 44.0542C19.2045 45.1352 18.0627 41.6421 18.0627 41.6421C17.1754 39.5743 15.8949 39.0192 15.8949 39.0192C14.1324 37.9102 16.0349 37.9337 16.0349 37.9337C17.9873 38.056 19.0146 39.7784 19.0146 39.7784C20.7515 42.5235 23.5718 41.7296 24.688 41.2676C24.8584 40.1114 25.3659 39.3164 25.9186 38.8734C21.5951 38.4238 17.0488 36.8819 17.0488 30.0067C17.0488 28.0432 17.8035 26.4441 19.0511 25.1882C18.8357 24.7385 18.1759 22.9107 19.2227 20.4392C19.2227 20.4392 20.8526 19.9604 24.5784 22.2794C26.1376 21.8813 27.793 21.6828 29.4472 21.6727C31.1026 21.6828 32.7568 21.8824 34.316 22.2794C38.02 19.9604 39.6486 20.4392 39.6486 20.4392C40.6942 22.9107 40.0344 24.7374 39.8445 25.1882C41.08 26.4441 41.8347 28.0443 41.8347 30.0067C41.8347 36.8976 37.2823 38.417 32.954 38.8555C33.6307 39.3926 34.2649 40.4972 34.2649 42.1736C34.2649 44.5734 34.2406 46.5066 34.2406 47.0909C34.2406 47.5574 34.5814 48.118 35.5843 47.9375C43.3744 45.5905 48.948 38.8622 48.948 30.942C48.948 21.0369 40.2316 13 29.4728 13L29.4752 13.0011Z" fill="white"/>
</svg>
