<svg width="61" height="62" viewBox="0 0 61 62" fill="none" xmlns="http://www.w3.org/2000/svg">
<rect x="1" width="60" height="62" fill="#C24D2C"/>
<path d="M19.736 22.288C18.776 22.288 17.9867 22.0107 17.368 21.456C16.7707 20.88 16.472 20.176 16.472 19.344C16.472 18.4907 16.7707 17.7867 17.368 17.232C17.9867 16.656 18.776 16.368 19.736 16.368C20.6747 16.368 21.4427 16.656 22.04 17.232C22.6587 17.7867 22.968 18.4907 22.968 19.344C22.968 20.176 22.6587 20.88 22.04 21.456C21.4427 22.0107 20.6747 22.288 19.736 22.288ZM22.456 24.144V42H16.984V24.144H22.456ZM37.3015 23.952C39.3922 23.952 41.0562 24.6347 42.2935 26C43.5522 27.344 44.1815 29.2 44.1815 31.568V42H38.7415V32.304C38.7415 31.1093 38.4322 30.1813 37.8135 29.52C37.1948 28.8587 36.3628 28.528 35.3175 28.528C34.2722 28.528 33.4402 28.8587 32.8215 29.52C32.2028 30.1813 31.8935 31.1093 31.8935 32.304V42H26.4215V24.144H31.8935V26.512C32.4482 25.7227 33.1948 25.104 34.1335 24.656C35.0722 24.1867 36.1282 23.952 37.3015 23.952Z" fill="white"/>
</svg>
