<svg width="150" height="150" viewBox="0 0 150 150" fill="none" xmlns="http://www.w3.org/2000/svg">
<rect width="150" height="150" fill="#3E4A61"/>
<path d="M96.084 103.516V123.592C96.084 126.7 95.202 129.094 93.438 130.774C91.702 132.454 89.35 133.294 86.382 133.294C83.274 133.294 80.782 132.412 78.906 130.648C77.03 128.884 76.092 126.378 76.092 123.13H83.232C83.232 124.362 83.484 125.3 83.988 125.944C84.492 126.56 85.22 126.868 86.172 126.868C87.04 126.868 87.712 126.588 88.188 126.028C88.664 125.468 88.902 124.656 88.902 123.592V103.516H96.084ZM109.067 127.456H118.475V133H101.885V103.516H109.067V127.456ZM125.261 133.336C124.001 133.336 122.965 132.972 122.153 132.244C121.369 131.488 120.977 130.564 120.977 129.472C120.977 128.352 121.369 127.414 122.153 126.658C122.965 125.902 124.001 125.524 125.261 125.524C126.493 125.524 127.501 125.902 128.285 126.658C129.097 127.414 129.503 128.352 129.503 129.472C129.503 130.564 129.097 131.488 128.285 132.244C127.501 132.972 126.493 133.336 125.261 133.336Z" fill="white"/>
</svg>
